<svg width="32" height="32" fill="none" xmlns="http://www.w3.org/2000/svg"><path d="M26.95 12.233h-7.194l-1.198 7.074h-4.996L7.688 26.3s.28.24.68.24h15.664c.36 0 .68-.28.76-.64l2.158-13.667z" fill="url(#prefix__paint0_linear)"/><path d="M4.77 5c-.48 0-.839.44-.759.88L7.248 25.7c.04.24.16.48.36.64 0 0 .28.24.68.24l6.073-7.273h-.839l-1.319-7.074H26.95l1.039-6.354c.08-.48-.28-.879-.76-.879H4.77z" fill="#fff"/><defs><linearGradient id="prefix__paint0_linear" x1="27.898" y1="15.387" x2="16.618" y2="23.023" gradientUnits="userSpaceOnUse"><stop offset=".072" stop-color="#fff" stop-opacity=".4"/><stop offset="1" stop-color="#fff"/></linearGradient></defs></svg>