<svg xmlns="http://www.w3.org/2000/svg" width="1502" height="1502"><style>@media (prefers-color-scheme:dark){path{fill:#fff}}</style><path d="M760.764 990.111c-72.051 68.7-144.495 99.369-191.058 72.489a.147.147 0 00-.013-.01C458.155 998.2 394.149 883.128 389.9 763.255 125.237 576.636-36.007 397.724 7.522 322.33c42.369-73.385 266.671-27.8 549.662 100l-20.659 13.741-19.16 13.187-22.2 19.686c-171.625-70.51-298.587-94.058-323.093-51.612-38.384 66.482 189.118 269.69 508.139 453.877s608.754 279.6 647.134 213.123c24.5-42.43-59.29-140.544-206.06-253.863l3.73-17.685 4.24-33.347 1.95-25.6c251.72 180.984 403.02 352.181 360.69 425.491-51.115 88.522-366.915 3.942-731.131-189.217zm-70.673-136.025c-105.553-60.94-203.532-124.045-290.786-186.3a360.014 360.014 0 0138.618-96.963C537.315 398.671 757.424 339.667 929.6 439c.036.021.074.038.111.059 74.614 43.079 54.511 217.584-44.9 389.77a798.292 798.292 0 01-65.428 96.647q-63.87-33.665-129.292-71.39z"/></svg>